<svg width="32" height="36" viewBox="0 0 32 36" fill="none" xmlns="http://www.w3.org/2000/svg">
<path d="M16.942 10.9048C23.2088 8.2648 31.341 11.351 30.2528 17.547C29.5537 21.5268 25.77 23.5134 22.047 25.6413C21.7626 25.0475 21.3548 24.5555 20.8647 24.2146C20.3745 23.8737 19.8193 23.6961 19.2549 23.6996C18.4173 23.6869 17.6097 24.0797 17.0097 24.7918C16.4098 25.504 16.0665 26.477 16.0554 27.4972C16.0549 28.2267 16.2309 28.9402 16.5616 29.5485C15.2835 30.7879 14.4426 32.5751 14.2107 34.5447C12.1882 34.5447 8.92903 27.3269 10.0064 20.4774C9.72095 20.5154 9.43402 20.5344 9.14689 20.5342C7.60992 20.534 6.1073 19.9805 4.82786 18.9433C3.54842 17.9061 2.54924 16.4315 1.95591 14.7048C1.36258 12.9781 1.20157 11.0763 1.4931 9.23844C1.78464 7.40059 2.51572 5.7087 3.59447 4.37538C4.67321 3.04206 6.05149 2.12682 7.55608 1.74466C9.06067 1.36251 10.6244 1.53051 12.0509 2.22753C13.4773 2.92456 14.7027 4.11952 15.5732 5.66223C16.4436 7.20495 16.9202 9.02658 16.9431 10.8982L16.942 10.9048Z" stroke="#6E4480" stroke-width="2"/>
</svg>
