<svg width="31" height="31" viewBox="0 0 31 31" fill="none" xmlns="http://www.w3.org/2000/svg">
<path d="M18.121 29.3903L17.145 22.4902C19.0204 23.7378 21.1671 24.5161 23.4054 24.7596C23.631 24.7628 23.858 24.7387 24.0779 24.688C24.4718 24.5323 24.8242 24.2892 25.1108 23.977C25.3974 23.6648 25.6091 23.2916 25.7309 22.8854C26.6133 20.3653 26.9718 17.6909 26.7834 15.027C26.7891 12.3094 26.2205 9.62137 25.1151 7.13942C24.88 6.71308 24.5842 6.32314 24.2373 5.98176L24.5168 6.39714C23.5106 9.88916 19.6117 10.4098 16.1492 12.584C15.7287 12.2367 15.2008 12.0464 14.6556 12.0455C14.3417 12.047 14.0323 12.1104 13.7429 12.2323C13.4535 12.3541 13.1906 12.5319 12.9699 12.7555C12.7492 12.9791 12.575 13.2441 12.4567 13.5353C12.3385 13.8265 12.2777 14.1383 12.2799 14.4526C12.2775 14.7671 12.3385 15.0789 12.4567 15.3703C12.5749 15.6616 12.7492 15.9268 12.9699 16.1505C13.1906 16.3742 13.4534 16.5521 13.7429 16.674C14.0324 16.7959 14.3416 16.8594 14.6556 16.8609C14.6903 16.8609 14.7289 16.8553 14.7692 16.8553C15.2477 22.048 15.0492 27.983 13.6315 29.3948H1.11067C0.446574 17.7622 6.46311 21.4199 7.09814 12.0052V10.7994C7.10466 8.30209 8.0987 5.90937 9.86478 4.14624C11.6309 2.38311 14.0245 1.39358 16.5183 1.39478H17.3895C19.6572 1.39423 21.8495 2.21317 23.5626 3.70114C25.2537 5.16417 26.367 7.18396 26.7026 9.39654C28.3226 15.3617 30.1253 27.4847 28.1744 29.3892L18.121 29.3903Z" stroke="#D76B50" stroke-width="2"/>
</svg>
