<svg width="29" height="30" viewBox="0 0 29 30" fill="none" xmlns="http://www.w3.org/2000/svg">
<path d="M16.5714 21.3627C15.8464 21.3627 15.1214 21.5698 14.5 21.9841V6.8627C14.5 6.65555 14.5 6.44841 14.3964 6.34484L11.2893 1.16627C10.875 0.544838 9.83929 0.544838 9.52857 1.16627L6.42143 6.34484C6.21429 6.44841 6.21429 6.65555 6.21429 6.8627V21.9841C5.59286 21.6734 4.86786 21.3627 4.14286 21.3627C1.86429 21.3627 0 23.227 0 25.5056C0 27.7841 1.86429 29.6484 4.14286 29.6484C6.42143 29.6484 8.28572 27.7841 8.28572 25.5056V18.152L12.4286 20.9484V25.6091C12.4286 27.8877 14.2929 29.752 16.5714 29.752C18.85 29.752 20.7143 27.8877 20.7143 25.6091C20.7143 23.3306 18.85 21.3627 16.5714 21.3627ZM4.14286 27.577C3.00357 27.577 2.07143 26.6448 2.07143 25.5056C2.07143 24.3663 3.00357 23.4341 4.14286 23.4341C5.28214 23.4341 6.21429 24.3663 6.21429 25.5056C6.21429 26.6448 5.28214 27.577 4.14286 27.577ZM8.28572 15.6663V7.17341L10.3571 3.75555L12.4286 7.17341V18.4627L8.28572 15.6663ZM16.5714 27.577C15.4321 27.577 14.5 26.6448 14.5 25.5056C14.5 24.3663 15.4321 23.4341 16.5714 23.4341C17.7107 23.4341 18.6429 24.3663 18.6429 25.5056C18.6429 26.6448 17.7107 27.577 16.5714 27.577Z" fill="#D76B50"/>
<path d="M10.357 15.1483C10.929 15.1483 11.3927 14.6846 11.3927 14.1126C11.3927 13.5406 10.929 13.0769 10.357 13.0769C9.78499 13.0769 9.32129 13.5406 9.32129 14.1126C9.32129 14.6846 9.78499 15.1483 10.357 15.1483Z" fill="#D76B50"/>
<path d="M26.9284 0.648438H17.607C16.9856 0.648438 16.5713 1.06272 16.5713 1.68415C16.5713 2.30558 16.9856 2.71987 17.607 2.71987H26.9284V4.79129H17.607C16.9856 4.79129 16.5713 5.20558 16.5713 5.82701C16.5713 6.44844 16.9856 6.86272 17.607 6.86272H26.9284V8.93415H17.607C16.9856 8.93415 16.5713 9.34844 16.5713 9.96987C16.5713 10.5913 16.9856 11.0056 17.607 11.0056H26.9284V13.077H17.607C16.9856 13.077 16.5713 13.4913 16.5713 14.1127C16.5713 14.7342 16.9856 15.1484 17.607 15.1484H26.9284V17.2199H17.607C16.9856 17.2199 16.5713 17.6342 16.5713 18.2556C16.5713 18.877 16.9856 19.2913 17.607 19.2913H26.9284V28.6127C26.9284 29.2342 27.3427 29.6484 27.9641 29.6484C28.5856 29.6484 28.9999 29.2342 28.9999 28.6127V2.71987C28.9999 1.58058 28.0677 0.648438 26.9284 0.648438Z" fill="#D76B50"/>
</svg>
