<svg width="29" height="30" viewBox="0 0 29 30" fill="none" xmlns="http://www.w3.org/2000/svg">
<path d="M16.5714 21.6054C15.8464 21.6054 15.1214 21.8125 14.5 22.2268V7.10537C14.5 6.89823 14.5 6.69109 14.3964 6.58751L11.2893 1.40894C10.875 0.787514 9.83929 0.787514 9.52857 1.40894L6.42143 6.58751C6.21429 6.69109 6.21429 6.89823 6.21429 7.10537V22.2268C5.59286 21.9161 4.86786 21.6054 4.14286 21.6054C1.86429 21.6054 0 23.4697 0 25.7482C0 28.0268 1.86429 29.8911 4.14286 29.8911C6.42143 29.8911 8.28572 28.0268 8.28572 25.7482V18.3947L12.4286 21.1911V25.8518C12.4286 28.1304 14.2929 29.9947 16.5714 29.9947C18.85 29.9947 20.7143 28.1304 20.7143 25.8518C20.7143 23.5732 18.85 21.6054 16.5714 21.6054ZM4.14286 27.8197C3.00357 27.8197 2.07143 26.8875 2.07143 25.7482C2.07143 24.6089 3.00357 23.6768 4.14286 23.6768C5.28214 23.6768 6.21429 24.6089 6.21429 25.7482C6.21429 26.8875 5.28214 27.8197 4.14286 27.8197ZM8.28572 15.9089V7.41609L10.3571 3.99823L12.4286 7.41609V18.7054L8.28572 15.9089ZM16.5714 27.8197C15.4321 27.8197 14.5 26.8875 14.5 25.7482C14.5 24.6089 15.4321 23.6768 16.5714 23.6768C17.7107 23.6768 18.6429 24.6089 18.6429 25.7482C18.6429 26.8875 17.7107 27.8197 16.5714 27.8197Z" fill="#E1B758"/>
<path d="M10.357 15.391C10.929 15.391 11.3927 14.9273 11.3927 14.3553C11.3927 13.7833 10.929 13.3196 10.357 13.3196C9.78499 13.3196 9.32129 13.7833 9.32129 14.3553C9.32129 14.9273 9.78499 15.391 10.357 15.391Z" fill="#E1B758"/>
<path d="M26.9284 0.891113H17.607C16.9856 0.891113 16.5713 1.3054 16.5713 1.92683C16.5713 2.54826 16.9856 2.96254 17.607 2.96254H26.9284V5.03397H17.607C16.9856 5.03397 16.5713 5.44826 16.5713 6.06968C16.5713 6.69111 16.9856 7.1054 17.607 7.1054H26.9284V9.17683H17.607C16.9856 9.17683 16.5713 9.59111 16.5713 10.2125C16.5713 10.834 16.9856 11.2483 17.607 11.2483H26.9284V13.3197H17.607C16.9856 13.3197 16.5713 13.734 16.5713 14.3554C16.5713 14.9768 16.9856 15.3911 17.607 15.3911H26.9284V17.4625H17.607C16.9856 17.4625 16.5713 17.8768 16.5713 18.4983C16.5713 19.1197 16.9856 19.534 17.607 19.534H26.9284V28.8554C26.9284 29.4768 27.3427 29.8911 27.9641 29.8911C28.5856 29.8911 28.9999 29.4768 28.9999 28.8554V2.96254C28.9999 1.82326 28.0677 0.891113 26.9284 0.891113Z" fill="#E1B758"/>
</svg>
