<svg width="32" height="28" viewBox="0 0 32 28" fill="none" xmlns="http://www.w3.org/2000/svg">
<path d="M30.0901 5.74478C29.9985 5.39071 29.8169 5.06721 29.5633 4.80663C29.3098 4.54604 28.9932 4.35748 28.6453 4.2598C28.4716 4.21661 28.2928 4.19844 28.1141 4.20584C28.05 4.20584 28.0323 4.22683 28.0017 4.18186C27.9844 4.13155 27.9738 4.07912 27.9702 4.02597C27.9421 3.90283 27.9062 3.78166 27.8627 3.66321C27.707 3.2613 27.4665 2.89876 27.1581 2.60094C26.5832 2.0237 25.8311 1.663 25.0263 1.57865C24.5917 1.54586 24.1552 1.60613 23.7451 1.75553C23.5321 1.83134 23.3243 1.92147 23.1232 2.02534C23.0621 2.05632 22.866 2.20721 22.8049 2.19722C22.7438 2.18723 22.6028 2.01735 22.5476 1.97437C21.8643 1.47109 21.0341 1.21523 20.1902 1.24787C19.2579 1.16324 18.3238 1.3888 17.5292 1.89043C17.3616 2.01409 17.2014 2.14756 17.0492 2.29016C16.9694 2.36611 16.8915 2.44405 16.8176 2.526C16.7732 2.57496 16.7299 2.62593 16.6875 2.67689C16.6165 2.76483 16.6274 2.79381 16.5288 2.73185C16.1503 2.49512 15.7041 2.39478 15.2624 2.44705C14.9982 2.48352 14.7404 2.55753 14.4966 2.6669C14.4138 2.70287 14.2206 2.84678 14.1319 2.84777C14.0432 2.84877 13.854 2.71587 13.7633 2.68189C13.2739 2.50086 12.7466 2.45128 12.2328 2.53799C11.6971 2.6311 11.1861 2.83522 10.7317 3.13758C10.5164 3.27165 10.3279 3.44555 10.1759 3.65022C10.1108 3.74216 10.0517 3.83909 9.97878 3.92403C9.93541 3.974 9.84967 4.02397 9.82602 4.08792C9.62429 3.97048 9.41088 3.87502 9.18934 3.80312C8.89404 3.72626 8.58304 3.73842 8.29445 3.83809C7.74953 4.05396 7.26547 4.40268 6.8851 4.8534C6.68591 5.07054 6.51076 5.30913 6.36276 5.56491C6.2918 5.68749 6.22609 5.81307 6.16564 5.94165C6.14221 6.01042 6.11354 6.07724 6.0799 6.14151C6.03062 6.21346 5.9981 6.21546 5.9094 6.24644C5.45653 6.40494 5.05228 6.68049 4.73658 7.04589C4.42272 7.41544 4.21179 7.86321 4.12554 8.343C4.12387 8.39745 4.11559 8.45149 4.10089 8.50389C4.07823 8.52487 3.98756 8.51588 3.95405 8.51988C3.83534 8.53394 3.71753 8.55496 3.60122 8.58283C3.38682 8.63409 3.17885 8.70986 2.9813 8.80868C2.22255 9.21125 1.652 9.90223 1.39455 10.7304C1.10403 11.5995 1.12532 12.5447 1.45467 13.3995C1.50943 13.5351 1.57537 13.6659 1.65178 13.7903C1.6981 13.8662 1.71387 13.8672 1.68332 13.9471C1.65276 14.0271 1.58476 14.123 1.54731 14.21C1.41743 14.4944 1.32308 14.7942 1.26643 15.1024C1.15611 15.6092 1.13973 16.1324 1.21813 16.6453C1.25975 16.8822 1.33897 17.1106 1.4527 17.3218C1.51192 17.4281 1.58088 17.5285 1.65868 17.6216C1.69909 17.6706 1.74245 17.7216 1.7868 17.7615C1.81533 17.785 1.84232 17.8104 1.86762 17.8375C1.92084 17.9074 1.93168 17.8495 1.90507 17.9514C1.85228 18.0949 1.79241 18.2357 1.7257 18.3731C1.67051 18.516 1.62123 18.6609 1.57589 18.8078C1.48139 19.1038 1.40826 19.4064 1.3571 19.7132C1.23655 20.3058 1.3056 20.9219 1.55421 21.472C1.67299 21.7042 1.84133 21.9066 2.04699 22.0646C2.14731 22.1423 2.25532 22.2093 2.36927 22.2644C2.42742 22.2924 2.50232 22.3044 2.52893 22.3644C2.55554 22.4243 2.51513 22.5482 2.50528 22.6172C2.39128 23.2192 2.40809 23.8392 2.55455 24.4339C2.72323 24.9802 3.07096 25.4516 3.54011 25.77C3.99691 26.0554 4.51978 26.2138 5.05611 26.2292C5.59244 26.2447 6.12332 26.1166 6.59535 25.858C6.84161 25.7302 7.07052 25.5707 7.27637 25.3833C7.5841 25.6842 7.97007 25.8899 8.38902 25.9763C8.80797 26.0627 9.24253 26.0261 9.64172 25.871C10.1069 25.7425 10.5397 25.515 10.9114 25.2036C11.283 24.8923 11.585 24.5042 11.7971 24.0652C11.9527 24.2277 12.1435 24.3512 12.3544 24.4258C12.5653 24.5004 12.7905 24.5241 13.012 24.495C13.2335 24.4658 13.4453 24.3847 13.6305 24.2581C13.8156 24.1315 13.9691 23.9627 14.0787 23.7654C14.1802 23.5671 14.2469 23.3523 14.2758 23.1308C14.2916 23.0149 14.2817 22.899 14.2936 22.7841C14.3306 22.6342 14.3866 22.4897 14.4601 22.3544C14.5711 22.0825 14.6313 21.7921 14.6375 21.498C14.6347 21.3443 14.6238 21.1908 14.605 21.0383C14.6036 20.9036 14.6191 20.7692 14.6513 20.6385C14.39 20.662 14.1268 20.6279 13.8796 20.5386C13.6498 20.4478 13.4452 20.3017 13.2834 20.1129C12.9284 19.704 12.6717 19.2173 12.5333 18.6909C12.3044 18.1473 12.2708 17.5395 12.4385 16.9734C12.6062 16.4072 12.9645 15.9187 13.4509 15.593C14.3266 15.3281 15.252 15.2785 16.1504 15.4481C16.8018 15.598 17.541 17.056 17.5774 17.1929C17.6001 17.2779 17.5883 17.3828 17.6652 17.4397C17.8337 17.5637 18.1126 17.3488 18.2368 17.2399C18.444 17.0483 18.6141 16.8192 18.7384 16.5643C19.03 16.022 19.2613 15.4485 19.4283 14.8545C19.5555 14.3988 19.6363 13.9292 19.8028 13.4855C19.9515 13.0387 20.2441 12.6557 20.6337 12.3982C21.0883 12.1522 21.5673 11.9556 22.0627 11.8116C22.5506 11.6651 23.0017 11.4139 23.3853 11.0751C23.4686 10.9968 23.5445 10.9109 23.612 10.8183C23.6643 10.7443 23.7106 10.6044 23.7944 10.5575C23.9176 10.4845 24.0969 10.6734 24.2034 10.7423C24.7238 11.0914 25.1709 11.5414 25.5191 12.0664C25.8664 12.558 26.1592 13.0868 26.3923 13.6434C26.5192 14.1108 26.7188 14.5548 26.9836 14.9585C27.4534 15.1485 27.9693 15.1882 28.462 15.0724C28.7928 14.921 29.073 14.6752 29.2682 14.3649C29.3784 14.1422 29.4107 13.8881 29.3598 13.6444C29.3312 13.4995 29.2741 13.3635 29.2415 13.2206C29.2211 13.1019 29.1846 12.9866 29.1331 12.8779C29.0795 12.7753 29.0057 12.685 28.9161 12.6126C28.8266 12.5402 28.7233 12.4873 28.6128 12.4572C28.8478 12.2392 29.0386 11.9768 29.1745 11.6847C29.3251 11.3673 29.4249 11.0276 29.4702 10.6784C29.505 10.406 29.4484 10.1297 29.3096 9.89393C29.1309 9.66327 28.9058 9.47386 28.6492 9.33831C29.0067 9.05154 29.3168 8.70881 29.5678 8.32301C29.832 7.95634 30.0154 7.53635 30.1055 7.09151C30.1957 6.64667 30.1904 6.18738 30.0901 5.74478Z" stroke="#7F948F" stroke-width="2"/>
</svg>
