<svg width="32" height="29" viewBox="0 0 32 29" fill="none" xmlns="http://www.w3.org/2000/svg">
<path d="M4.20824 23.2965C3.0805 21.9673 2.26001 20.4211 1.80148 18.7612C1.34295 17.1012 1.25743 15.366 1.5499 13.6714C2.07164 10.3338 3.87107 7.30646 6.59403 5.18784C9.62017 2.99446 13.3314 1.86181 17.1142 1.9767C22.0303 1.9767 26.3129 3.7449 28.5756 6.70949C29.4458 7.8756 30.0081 9.22861 30.2151 10.6516C30.4221 12.0746 30.2681 13.5249 29.7644 14.8772C29.5572 15.5658 29.1365 16.1767 28.5589 16.6277C28.3641 15.4333 28.0094 14.2683 27.5043 13.1618H27.4918C23.7691 13.9298 20.2243 15.3519 17.0345 17.357C16.5741 17.1805 16.0834 17.0902 15.5879 17.0908C13.9628 17.0908 12.6422 18.0096 12.5606 19.1625C13.1126 20.5638 13.9174 21.8597 14.938 22.9899L13.8542 27.8719C11.9995 27.8261 10.1773 27.3934 8.51231 26.6037C6.84732 25.8139 5.37863 24.6857 4.20824 23.2965Z" stroke="#E1B758" stroke-width="2"/>
</svg>
