<svg width="31" height="30" viewBox="0 0 31 30" fill="none" xmlns="http://www.w3.org/2000/svg">
<path d="M13.881 18.9705C13.3137 18.5745 12.6392 18.3609 11.9474 18.3582C11.0189 18.385 10.1357 18.7658 9.47882 19.4227C8.82196 20.0795 8.44115 20.9627 8.41439 21.8913C8.36575 22.6797 8.54067 23.4658 8.91902 24.1593C9.29737 24.8527 9.86379 25.4252 10.5531 25.811C9.88066 27.1247 9.20607 28.0786 8.41439 28.2516C5.36475 27.9422 1.35156 20.3509 1.35156 14.1173C1.35156 7.29405 6.78054 1.39673 16.8994 1.39673C25.9936 1.39673 29.4428 5.14674 29.62 8.46385C25.7229 9.53804 18.9125 9.94731 9.1255 9.87749V10.5843L17.6063 11.2911L19.0199 15.531C16.7705 15.3612 15.1635 16.9049 13.881 18.9705Z" stroke="#CA3F89" stroke-width="2"/>
</svg>
