<svg width="29" height="30" viewBox="0 0 29 30" fill="none" xmlns="http://www.w3.org/2000/svg">
<path d="M16.5714 21.2946C15.8464 21.2946 15.1214 21.5017 14.5 21.916V6.79458C14.5 6.58744 14.5 6.3803 14.3964 6.27672L11.2893 1.09815C10.875 0.476723 9.83929 0.476723 9.52857 1.09815L6.42143 6.27672C6.21429 6.3803 6.21429 6.58744 6.21429 6.79458V21.916C5.59286 21.6053 4.86786 21.2946 4.14286 21.2946C1.86429 21.2946 0 23.1589 0 25.4374C0 27.716 1.86429 29.5803 4.14286 29.5803C6.42143 29.5803 8.28572 27.716 8.28572 25.4374V18.0839L12.4286 20.8803V25.541C12.4286 27.8196 14.2929 29.6839 16.5714 29.6839C18.85 29.6839 20.7143 27.8196 20.7143 25.541C20.7143 23.2624 18.85 21.2946 16.5714 21.2946ZM4.14286 27.5089C3.00357 27.5089 2.07143 26.5767 2.07143 25.4374C2.07143 24.2982 3.00357 23.366 4.14286 23.366C5.28214 23.366 6.21429 24.2982 6.21429 25.4374C6.21429 26.5767 5.28214 27.5089 4.14286 27.5089ZM8.28572 15.5982V7.1053L10.3571 3.68744L12.4286 7.1053V18.3946L8.28572 15.5982ZM16.5714 27.5089C15.4321 27.5089 14.5 26.5767 14.5 25.4374C14.5 24.2982 15.4321 23.366 16.5714 23.366C17.7107 23.366 18.6429 24.2982 18.6429 25.4374C18.6429 26.5767 17.7107 27.5089 16.5714 27.5089Z" fill="#CA3F89"/>
<path d="M10.357 15.0802C10.929 15.0802 11.3927 14.6165 11.3927 14.0445C11.3927 13.4725 10.929 13.0088 10.357 13.0088C9.78499 13.0088 9.32129 13.4725 9.32129 14.0445C9.32129 14.6165 9.78499 15.0802 10.357 15.0802Z" fill="#CA3F89"/>
<path d="M26.9284 0.580322H17.607C16.9856 0.580322 16.5713 0.994608 16.5713 1.61604C16.5713 2.23747 16.9856 2.65175 17.607 2.65175H26.9284V4.72318H17.607C16.9856 4.72318 16.5713 5.13747 16.5713 5.75889C16.5713 6.38032 16.9856 6.79461 17.607 6.79461H26.9284V8.86604H17.607C16.9856 8.86604 16.5713 9.28032 16.5713 9.90175C16.5713 10.5232 16.9856 10.9375 17.607 10.9375H26.9284V13.0089H17.607C16.9856 13.0089 16.5713 13.4232 16.5713 14.0446C16.5713 14.666 16.9856 15.0803 17.607 15.0803H26.9284V17.1517H17.607C16.9856 17.1517 16.5713 17.566 16.5713 18.1875C16.5713 18.8089 16.9856 19.2232 17.607 19.2232H26.9284V28.5446C26.9284 29.166 27.3427 29.5803 27.9641 29.5803C28.5856 29.5803 28.9999 29.166 28.9999 28.5446V2.65175C28.9999 1.51247 28.0677 0.580322 26.9284 0.580322Z" fill="#CA3F89"/>
</svg>
