<svg width="29" height="31" viewBox="0 0 29 31" fill="none" xmlns="http://www.w3.org/2000/svg">
<path d="M16.5714 21.984C15.8464 21.984 15.1214 22.1912 14.5 22.6055V7.48403C14.5 7.27689 14.5 7.06975 14.3964 6.96618L11.2893 1.7876C10.875 1.16618 9.83929 1.16618 9.52857 1.7876L6.42143 6.96618C6.21429 7.06975 6.21429 7.27689 6.21429 7.48403V22.6055C5.59286 22.2947 4.86786 21.984 4.14286 21.984C1.86429 21.984 0 23.8483 0 26.1269C0 28.4055 1.86429 30.2697 4.14286 30.2697C6.42143 30.2697 8.28572 28.4055 8.28572 26.1269V18.7733L12.4286 21.5697V26.2305C12.4286 28.509 14.2929 30.3733 16.5714 30.3733C18.85 30.3733 20.7143 28.509 20.7143 26.2305C20.7143 23.9519 18.85 21.984 16.5714 21.984ZM4.14286 28.1983C3.00357 28.1983 2.07143 27.2662 2.07143 26.1269C2.07143 24.9876 3.00357 24.0555 4.14286 24.0555C5.28214 24.0555 6.21429 24.9876 6.21429 26.1269C6.21429 27.2662 5.28214 28.1983 4.14286 28.1983ZM8.28572 16.2876V7.79475L10.3571 4.37689L12.4286 7.79475V19.084L8.28572 16.2876ZM16.5714 28.1983C15.4321 28.1983 14.5 27.2662 14.5 26.1269C14.5 24.9876 15.4321 24.0555 16.5714 24.0555C17.7107 24.0555 18.6429 24.9876 18.6429 26.1269C18.6429 27.2662 17.7107 28.1983 16.5714 28.1983Z" fill="#6E4480"/>
<path d="M10.357 15.7697C10.929 15.7697 11.3927 15.306 11.3927 14.734C11.3927 14.1619 10.929 13.6982 10.357 13.6982C9.78499 13.6982 9.32129 14.1619 9.32129 14.734C9.32129 15.306 9.78499 15.7697 10.357 15.7697Z" fill="#6E4480"/>
<path d="M26.9284 1.26978H17.607C16.9856 1.26978 16.5713 1.68406 16.5713 2.30549C16.5713 2.92692 16.9856 3.3412 17.607 3.3412H26.9284V5.41263H17.607C16.9856 5.41263 16.5713 5.82692 16.5713 6.44835C16.5713 7.06978 16.9856 7.48406 17.607 7.48406H26.9284V9.55549H17.607C16.9856 9.55549 16.5713 9.96978 16.5713 10.5912C16.5713 11.2126 16.9856 11.6269 17.607 11.6269H26.9284V13.6983H17.607C16.9856 13.6983 16.5713 14.1126 16.5713 14.7341C16.5713 15.3555 16.9856 15.7698 17.607 15.7698H26.9284V17.8412H17.607C16.9856 17.8412 16.5713 18.2555 16.5713 18.8769C16.5713 19.4983 16.9856 19.9126 17.607 19.9126H26.9284V29.2341C26.9284 29.8555 27.3427 30.2698 27.9641 30.2698C28.5856 30.2698 28.9999 29.8555 28.9999 29.2341V3.3412C28.9999 2.20192 28.0677 1.26978 26.9284 1.26978Z" fill="#6E4480"/>
</svg>
