<svg width="29" height="31" viewBox="0 0 29 31" fill="none" xmlns="http://www.w3.org/2000/svg">
<path d="M16.5714 21.6732C15.8464 21.6732 15.1214 21.8804 14.5 22.2947V7.17324C14.5 6.9661 14.5 6.75896 14.3964 6.65539L11.2893 1.47681C10.875 0.855385 9.83929 0.855385 9.52857 1.47681L6.42143 6.65539C6.21429 6.75896 6.21429 6.9661 6.21429 7.17324V22.2947C5.59286 21.984 4.86786 21.6732 4.14286 21.6732C1.86429 21.6732 0 23.5375 0 25.8161C0 28.0947 1.86429 29.959 4.14286 29.959C6.42143 29.959 8.28572 28.0947 8.28572 25.8161V18.4625L12.4286 21.259V25.9197C12.4286 28.1982 14.2929 30.0625 16.5714 30.0625C18.85 30.0625 20.7143 28.1982 20.7143 25.9197C20.7143 23.6411 18.85 21.6732 16.5714 21.6732ZM4.14286 27.8875C3.00357 27.8875 2.07143 26.9554 2.07143 25.8161C2.07143 24.6768 3.00357 23.7447 4.14286 23.7447C5.28214 23.7447 6.21429 24.6768 6.21429 25.8161C6.21429 26.9554 5.28214 27.8875 4.14286 27.8875ZM8.28572 15.9768V7.48396L10.3571 4.0661L12.4286 7.48396V18.7732L8.28572 15.9768ZM16.5714 27.8875C15.4321 27.8875 14.5 26.9554 14.5 25.8161C14.5 24.6768 15.4321 23.7447 16.5714 23.7447C17.7107 23.7447 18.6429 24.6768 18.6429 25.8161C18.6429 26.9554 17.7107 27.8875 16.5714 27.8875Z" fill="#7F948F"/>
<path d="M10.357 15.4589C10.929 15.4589 11.3927 14.9952 11.3927 14.4232C11.3927 13.8512 10.929 13.3875 10.357 13.3875C9.78499 13.3875 9.32129 13.8512 9.32129 14.4232C9.32129 14.9952 9.78499 15.4589 10.357 15.4589Z" fill="#7F948F"/>
<path d="M26.9284 0.958984H17.607C16.9856 0.958984 16.5713 1.37327 16.5713 1.9947C16.5713 2.61613 16.9856 3.03041 17.607 3.03041H26.9284V5.10184H17.607C16.9856 5.10184 16.5713 5.51613 16.5713 6.13756C16.5713 6.75898 16.9856 7.17327 17.607 7.17327H26.9284V9.2447H17.607C16.9856 9.2447 16.5713 9.65898 16.5713 10.2804C16.5713 10.9018 16.9856 11.3161 17.607 11.3161H26.9284V13.3876H17.607C16.9856 13.3876 16.5713 13.8018 16.5713 14.4233C16.5713 15.0447 16.9856 15.459 17.607 15.459H26.9284V17.5304H17.607C16.9856 17.5304 16.5713 17.9447 16.5713 18.5661C16.5713 19.1876 16.9856 19.6018 17.607 19.6018H26.9284V28.9233C26.9284 29.5447 27.3427 29.959 27.9641 29.959C28.5856 29.959 28.9999 29.5447 28.9999 28.9233V3.03041C28.9999 1.89113 28.0677 0.958984 26.9284 0.958984Z" fill="#7F948F"/>
</svg>
